<?xml version="1.0" encoding="UTF-8"?>
<svg id="Lag_1" data-name="Lag 1" xmlns="http://www.w3.org/2000/svg" viewBox="0 0 624.02 555.06">
  <defs>
    <style>
      .cls-1 {
        fill: #9400f6;
      }
    </style>
  </defs>
  <path class="cls-1" d="M623.76,554.64h.17s-.25-.13-.25-.13L323.22,79.06l28.56-49.12L342.88,0l-32.83,57.89L276.43,.7l-8.45,30.08,29.21,48.49L0,554.85l7.91-3.65-7.65,3.65,622.97-.21,.79,.42-.26-.42Zm-581.1-20.05l-.31,.15L311.52,102.48l.03,.96,270.25,429.22-539.14,1.93Z"/>
  <path class="cls-1" d="M144.02,511.76l4.21-1.9-4.07,1.91,330.32,2.43,.42,.22-.14-.22h.09s-.13-.07-.13-.07L310.51,249.81,144.02,511.76Zm167.03-238.08l141.55,228.68-285.88-1.17-.17,.08,144.48-228.1v.51Z"/>
</svg>